<svg enable-background="new 0 0 512 512" viewBox="0 0 512 512" xmlns="http://www.w3.org/2000/svg"><path d="m103.387 468.392h-26.828v-413.255l26.828-19.33z" fill="#c4ac8c"/><path d="m460.91 7.849v-.794h-337.063v.794l-29.692 47.288v396.473c0 1.542.193 3.037.525 4.478l-.104.017-4.603 15.38-44.525 31.908h368.174c26.117 0 47.288-21.172 47.288-47.288v-4.495-54.207-294.978c26.117 0 47.288-21.172 47.288-47.288s-21.172-47.288-47.288-47.288z" fill="#f7dfbc"/><path d="m459.726 101.641h-335.461l-30.11-20.002v43.723h365.571z" fill="#e0c7ad"/><path d="m123.847 102.425c-26.117 0-47.288-21.172-47.288-47.288s21.172-47.288 47.288-47.288 47.288 21.172 47.288 47.288-21.171 47.288-47.288 47.288zm-29.271 353.68c0-26.117-21.172-47.288-47.288-47.288s-47.288 21.171-47.288 47.288 21.172 47.288 47.288 47.288 47.288-21.171 47.288-47.288z" fill="#c4ac8c"/><path d="m413.686 427.689h-258.098c-4.574 0-8.281-3.708-8.281-8.281s3.708-8.281 8.281-8.281h258.097c4.573 0 8.281 3.708 8.281 8.281s-3.707 8.281-8.28 8.281zm-7.915-58.331c0-4.573-3.708-8.281-8.281-8.281h-241.902c-4.574 0-8.281 3.708-8.281 8.281s3.708 8.281 8.281 8.281h241.901c4.573.001 8.282-3.707 8.282-8.281zm-97.229-50.049c0-4.573-3.708-8.281-8.281-8.281h-144.673c-4.574 0-8.281 3.708-8.281 8.281s3.708 8.281 8.281 8.281h144.672c4.574 0 8.282-3.708 8.282-8.281zm113.425-50.05c0-4.573-3.708-8.281-8.281-8.281h-258.098c-4.574 0-8.281 3.708-8.281 8.281s3.708 8.281 8.281 8.281h258.097c4.574 0 8.282-3.708 8.282-8.281zm0-50.05c0-4.574-3.708-8.281-8.281-8.281h-258.098c-4.574 0-8.281 3.708-8.281 8.281s3.708 8.281 8.281 8.281h258.097c4.574.001 8.282-3.707 8.282-8.281zm0-50.049c0-4.574-3.708-8.281-8.281-8.281h-258.098c-4.574 0-8.281 3.708-8.281 8.281s3.708 8.281 8.281 8.281h258.097c4.574 0 8.282-3.708 8.282-8.281zm-278.79-114.023c0-10.676-8.654-19.33-19.33-19.33s-19.33 8.654-19.33 19.33 8.654 19.33 19.33 19.33 19.33-8.654 19.33-19.33zm-76.559 400.968c0-10.676-8.654-19.33-19.33-19.33s-19.33 8.654-19.33 19.33 8.654 19.33 19.33 19.33 19.33-8.654 19.33-19.33z" fill="#60554a"/></svg>